<svg width="13" height="12" viewBox="0 0 13 12" fill="none" xmlns="http://www.w3.org/2000/svg">
<path fill-rule="evenodd" clip-rule="evenodd" d="M1.55215 0.429837C1.24043 0.157076 0.766603 0.188664 0.493842 0.500391C0.22108 0.812119 0.252669 1.28594 0.564396 1.5587L5.35439 5.74994L0.564251 9.94131C0.252524 10.2141 0.220935 10.6879 0.493697 10.9996C0.766458 11.3113 1.24028 11.3429 1.55201 11.0702L6.49333 6.74652L11.3615 11.0061C11.6732 11.2789 12.147 11.2473 12.4198 10.9356C12.6925 10.6238 12.6609 10.15 12.3492 9.87727L7.63227 5.74994L12.3491 1.62275C12.6608 1.34999 12.6924 0.876164 12.4196 0.564437C12.1469 0.252709 11.673 0.221121 11.3613 0.493883L6.49333 4.75337L1.55215 0.429837Z" fill="black"/>
</svg>
